<svg xmlns="http://www.w3.org/2000/svg" preserveAspectRatio="xMidYMid meet" version="1.1" viewBox="0 0 262 163"><g><title>Layer 1</title><g id="svg_1" fill="none" fill-rule="evenodd"><g id="Nx---Quick-Wins" fill-rule="nonzero"><g id="Logos"><g id="Nx_Flat_White"><polygon id="Path" fill="#002f56" points="130.68 104.59 97.49 52.71 97.44 96.3 40.24 0 0 0 0 162.57 39.79 162.57 39.92 66.39 96.53 158.26"/><polygon id="Path" fill="#002f56" points="97.5 41.79 137.24 41.79 137.33 41.33 137.33 0 97.54 0 97.49 41.33"/><path id="Path" fill="#96D8E9" d="m198.66,86.86c-9.52013,-0.18048 -18.12128,5.65645 -21.47,14.57c5.57479,-8.3369 16.18967,-11.68678 25.54,-8.06c4.32,1.76 10,4.6 14.5,3.08c-4.27969,-6.00612 -11.1951,-9.5774 -18.57,-9.59l0,0z"/><path id="Path" fill="#48C4E5" d="m243.75,106.42c0,-4.87 -2.65,-6 -8.15,-8c-4.08,-1.42 -8.71,-3.02 -12.08,-7.42c-0.66,-0.87 -1.27,-1.85 -1.92,-2.89c-1.45618,-2.69359 -3.43073,-5.07257 -5.81,-7c-3.21,-2.36 -7.42,-3.51 -12.88,-3.51c-10.95574,0.00767 -20.82581,6.62062 -25,16.75c5.27696,-7.32218 14.04672,-11.2895 23.03015,-10.41854c8.98343,0.87096 16.82774,6.44904 20.59985,14.64854c1.88461,3.10976 5.60134,4.59482 9.11,3.64c5.37,-1.15 5,3.93 13.11,5.65l-0.01,-1.45z"/><path id="Path" fill="#002f56" d="m261.46,105.38l0,-0.11c-0.12,-32.24 -26.29,-59.82 -58.55,-59.82c-19.70291,-0.01368 -38.08822,9.89506 -48.91,26.36l-0.21,-0.36l-16.56,-26l-39.73,-0.00001l37.75,59.12001l-36.84,58l38.59,0l16.79,-25.79l17.09,25.79l38.6,0l-35,-55.08c-0.581,-1.07316 -0.89646,-2.26989 -0.92,-3.49c-0.00265,-7.77961 3.08661,-15.24136 8.58763,-20.74237c5.50101,-5.50102 12.96276,-8.59028 20.74237,-8.58763c16.22,0 18.93,9.7 22.43,14.26c6.91,9 20.71,5.06 20.71,16.8l0,0c0.04109,2.75095 1.54666,5.271 3.94959,6.6109c2.40293,1.33989 5.33816,1.29605 7.7,-0.115c2.36185,-1.41106 3.7915,-3.97495 3.75041,-6.7259l0,0l0,-0.12l0.03,0z"/><path id="Path" fill="#002f56" d="m261.5,113.68c0.39228,2.7418 0.00412,5.53865 -1.12,8.07c-2.2,5.09 -5.87,3.39 -5.87,3.39c0,0 -3.16,-1.54 -1.24,-4.49c2.13,-3.29 6.34,-2.91 8.23,-6.97z"/></g></g></g></g></g></svg>